<svg xmlns="http://www.w3.org/2000/svg" width="30" height="30" viewBox="0 0 20 20" fill="none">
  <path d="M10.0372 18.4375C9.91818 18.3801 9.80329 18.3391 9.7007 18.2777L2.72113 14.0319C2.31081 13.7901 2.31081 13.6794 2.54059 13.286C4.89857 9.48559 7.24835 5.68789 9.58992 1.89292C9.86483 1.45031 10.1028 1.45441 10.3818 1.89292L17.4353 13.368C17.6979 13.7778 17.6733 13.8926 17.2588 14.1385L10.3777 18.2367C10.2711 18.3309 10.1808 18.3678 10.0372 18.4375ZM4.9697 13.368C5.00848 13.406 5.04959 13.4416 5.09279 13.4745C6.66432 14.4335 8.24406 15.3884 9.81149 16.3433C9.8863 16.396 9.97662 16.4223 10.0681 16.4178C10.1595 16.4133 10.2469 16.3785 10.3162 16.3187C11.7892 15.4294 13.2664 14.5524 14.7395 13.6672C14.8338 13.6139 14.92 13.5483 15.0267 13.4745L14.723 13.2163L10.7922 10.1058C10.0249 9.49925 10.0249 9.49925 9.23704 10.1058L4.9697 13.368ZM6.71767 9.78612L6.77101 9.8394C7.19965 9.47214 7.65348 9.13527 8.12917 8.83123C8.99495 8.34354 9.36014 7.67553 9.17549 6.69196C9.15288 6.46027 9.15288 6.22694 9.17549 5.99526H9.08522L6.71767 9.78612ZM10.9358 6.07312L10.8742 6.09361C10.8742 6.63458 10.8742 7.17555 10.8742 7.73291C10.8893 7.90873 10.9698 8.07252 11.0999 8.19191C11.6949 8.69189 12.3309 9.16319 12.9258 9.64678C12.9864 9.68758 13.0494 9.72454 13.1146 9.75744L13.1515 9.71236L10.9358 6.07312Z" fill="currentColor"/>
</svg>